<?xml version="1.0" encoding="utf-8"?>
<!-- Generator: Adobe Illustrator 19.0.0, SVG Export Plug-In . SVG Version: 6.00 Build 0)  -->
<svg version="1.1" id="Layer_1" xmlns="http://www.w3.org/2000/svg" xmlns:xlink="http://www.w3.org/1999/xlink" x="0px" y="0px"
	 viewBox="0 0 96 96" style="enable-background:new 0 0 96 96;" xml:space="preserve">
<style type="text/css">
	.st0{fill:#333333;}
</style>
<g id="XMLID_1_">
	<circle id="XMLID_3_" class="st0" cx="74" cy="77.3" r="3.3"/>
	<circle id="XMLID_4_" class="st0" cx="22" cy="77.3" r="3.3"/>
	<path id="XMLID_9_" class="st0" d="M15.5,41.5v13c0,3.6,2.9,6.5,6.5,6.5h22.8v13H28.5v6.5h39V74H51.3V61H74c3.6,0,6.5-2.9,6.5-6.5
		v-13H15.5z M41.5,54.5H25.3V48h16.3V54.5z M57.8,54.5c-1.8,0-3.3-1.5-3.3-3.3c0-1.8,1.5-3.3,3.3-3.3s3.3,1.5,3.3,3.3
		C61,53,59.5,54.5,57.8,54.5z M67.5,54.5c-1.8,0-3.3-1.5-3.3-3.3c0-1.8,1.5-3.3,3.3-3.3s3.3,1.5,3.3,3.3
		C70.8,53,69.3,54.5,67.5,54.5z"/>
	<path id="XMLID_14_" class="st0" d="M80.5,35V22c0-3.6-2.9-6.5-6.5-6.5H22c-3.6,0-6.5,2.9-6.5,6.5v13H80.5z M67.5,22
		c1.8,0,3.3,1.5,3.3,3.3c0,1.8-1.5,3.3-3.3,3.3s-3.3-1.5-3.3-3.3C64.3,23.5,65.7,22,67.5,22z M57.8,22c1.8,0,3.3,1.5,3.3,3.3
		c0,1.8-1.5,3.3-3.3,3.3s-3.3-1.5-3.3-3.3C54.5,23.5,56,22,57.8,22z M25.3,22h16.3v6.5H25.3V22z"/>
</g>
</svg>
