<?xml version="1.0" encoding="UTF-8" standalone="no"?>
<!-- Created with Inkscape (http://www.inkscape.org/) -->

<svg
   xmlns:dc="http://purl.org/dc/elements/1.1/"
   xmlns:cc="http://creativecommons.org/ns#"
   xmlns:rdf="http://www.w3.org/1999/02/22-rdf-syntax-ns#"
   xmlns:svg="http://www.w3.org/2000/svg"
   xmlns="http://www.w3.org/2000/svg"
   xmlns:sodipodi="http://sodipodi.sourceforge.net/DTD/sodipodi-0.dtd"
   xmlns:inkscape="http://www.inkscape.org/namespaces/inkscape"
   width="1000mm"
   height="1000mm"
   viewBox="0 0 1000 1000"
   version="1.1"
   id="svg8"
   sodipodi:docname="plex1.svg"
   inkscape:version="0.92.4 (5da689c313, 2019-01-14)">
  <defs
     id="defs2" />
  <sodipodi:namedview
     id="base"
     pagecolor="#ffffff"
     bordercolor="#666666"
     borderopacity="1.0"
     inkscape:pageopacity="0.0"
     inkscape:pageshadow="2"
     inkscape:zoom="0.175"
     inkscape:cx="1437.6112"
     inkscape:cy="2009.7307"
     inkscape:document-units="mm"
     inkscape:current-layer="layer1"
     showgrid="false"
     inkscape:window-width="1920"
     inkscape:window-height="1017"
     inkscape:window-x="-8"
     inkscape:window-y="-8"
     inkscape:window-maximized="1" />
  <metadata
     id="metadata5">
    <rdf:RDF>
      <cc:Work
         rdf:about="">
        <dc:format>image/svg+xml</dc:format>
        <dc:type
           rdf:resource="http://purl.org/dc/dcmitype/StillImage" />
        <dc:title></dc:title>
      </cc:Work>
    </rdf:RDF>
  </metadata>
  <g
     inkscape:label="Ebene 1"
     inkscape:groupmode="layer"
     id="layer1"
     transform="translate(0,703)">
    <g
       id="g3779"
       transform="translate(401.63749,-364.82261)">
      <path
         style="fill:#d0d0d0;stroke-width:0.28222221"
         d="m -169.38085,564.25277 c -0.0999,-0.16163 -0.2925,-3.49538 -0.42802,-7.40833 -0.78695,-22.72148 -4.56962,-43.50334 -11.80003,-64.8289 -8.80203,-25.96094 -23.34962,-51.63001 -40.94604,-72.24888 -9.57419,-11.2187 -21.63033,-22.83138 -32.89649,-31.6865 -37.56253,-29.52386 -83.65742,-46.19055 -131.44774,-47.52805 -4.44666,-0.12446 -6.50957,-0.28372 -6.70364,-0.51757 -0.18373,-0.22138 -0.25574,-15.8417 -0.20893,-45.32229 l 0.0714,-44.98447 4.65666,-0.0899 c 15.03553,-0.29018 38.762,2.25214 57.83321,6.19693 75.83739,15.68658 143.96555,60.04023 190.64913,124.11884 34.82977,47.8079 55.91487,104.46951 60.814699,163.42632 0.678265,8.16117 1.244939,19.85033 0.999744,20.62283 -0.169474,0.53399 -0.990628,0.54384 -45.292483,0.54384 -30.96755,0 -45.17685,-0.0922 -45.3015,-0.29388 z m 180.659616,-0.15254 c -0.09423,-0.24553 -0.172156,-2.30928 -0.1732,-4.58611 -0.0028,-5.35186 -0.45768,-16.34148 -0.995708,-24.03636 -6.8184607,-97.5201 -48.275804,-188.47098 -117.387288,-257.52923 -27.0391,-27.01829 -56.00711,-48.87357 -89.754,-67.71611 -7.3245,-4.0896 -23.50344,-12.17605 -31.00376,-15.49609 -43.16912,-19.10887 -87.19043,-30.23522 -134.09624,-33.89277 -5.10456,-0.39802 -13.5543,-0.79843 -25.96444,-1.2304 l -5.64444,-0.19649 V 114.12001 68.823347 l 8.46666,0.0545 c 28.59543,0.184094 59.78837,3.573244 90.45222,9.82774 C -178.40482,102.45103 -73.450496,169.02888 -1.1459827,264.99885 33.162587,310.5367 59.205461,361.25446 76.151381,415.53333 90.11901,460.27249 97.786,507.62071 98.5099,553.61054 l 0.172155,10.93611 H 55.066051 c -39.511731,0 -43.632091,-0.042 -43.787285,-0.44642 z m -404.666306,-2.96285 c -0.46817,-0.27269 -0.49389,-3.76891 -0.49389,-67.14129 v -66.85361 l 0.60555,-0.19219 c 0.77309,-0.24537 7.64536,0.0738 12.94112,0.60113 30.26407,3.01331 58.39265,16.23382 80.38564,37.7814 17.3724,17.02059 29.44164,37.5601 35.90567,61.10452 2.67355,9.73805 4.4998,22.51749 4.4998,31.48787 0,2.63429 -0.0759,3.20353 -0.44642,3.34569 -0.81129,0.31132 -132.86064,0.17915 -133.39747,-0.13352 z m 578.96864,-0.03 c -0.26569,-0.26569 -0.34253,-10.42622 -0.34253,-45.2906 0,-44.15 0.01,-44.95326 0.5459,-45.24022 0.37439,-0.20038 49.79723,-0.29216 157.339,-0.29216 h 156.79312 l -0.0707,-312.63164 -0.0707,-312.63165 H 96.7619 -306.25143 l -0.0711,66.729258 c -0.0565,52.95384 -0.14385,66.775427 -0.42334,66.952897 -0.40706,0.258482 -89.12186,0.318725 -89.79354,0.06097 -0.4054,-0.155564 -0.44642,-6.542362 -0.44642,-69.50814 0,-75.477355 -0.008,-75.077905 1.57448,-82.890755 2.92284,-14.43413 9.53782,-28.28923 18.96611,-39.72455 2.8249,-3.42625 9.14762,-9.67962 12.47941,-12.34254 11.71383,-9.36224 24.83863,-15.55762 39.05867,-18.4371 8.37734,-1.69637 -24.38415,-1.57479 423.351511,-1.57114 432.558349,0.004 413.819729,-0.0472 420.239809,1.13671 17.7658,3.276 35.26471,13.13903 47.92395,27.01173 13.52559,14.82206 22.10574,34.08728 23.59889,52.9871 0.43626,5.52178 0.44252,639.37283 0.006,644.45441 -1.90128,22.15218 -12.82099,43.73335 -29.61934,58.53808 -14.45705,12.74131 -30.78415,19.97537 -50.79991,22.50798 -3.93409,0.49775 -323.71772,0.67666 -324.21302,0.18136 z M 137.93005,393.66827 c -0.18215,-0.47467 -0.15161,-0.52722 4.84767,-8.33272 2.03804,-3.18206 5.65289,-8.83356 8.03301,-12.55889 5.40438,-8.4589 10.63179,-16.63223 13.80826,-21.59 1.34261,-2.0955 3.09171,-4.826 3.88693,-6.06777 2.96195,-4.62534 15.01123,-23.45893 18.14376,-28.35964 1.78505,-2.79262 4.40534,-6.88862 5.82289,-9.10226 11.06836,-17.28447 28.98558,-45.29412 33.26502,-52.00254 1.58429,-2.48356 6.09369,-9.53206 10.02084,-15.66334 3.92718,-6.13127 8.43565,-13.17977 10.01886,-15.66333 1.58321,-2.48355 4.6298,-7.24605 6.7702,-10.58333 2.1404,-3.33728 5.39248,-8.41728 7.22684,-11.28889 1.83439,-2.87161 4.60222,-7.18961 6.15078,-9.59555 1.54855,-2.40595 3.29384,-5.13645 3.87844,-6.06778 0.97857,-1.55897 6.50629,-10.20437 14.34563,-22.43667 1.74083,-2.71639 3.30912,-5.21066 3.48505,-5.54287 0.28129,-0.53111 -0.0245,-1.14396 -2.53483,-5.08 -6.66691,-10.45328 -8.29135,-12.99633 -12.32363,-19.29268 -2.33607,-3.64772 -5.38373,-8.41022 -6.7726,-10.58333 -1.38884,-2.17311 -4.27332,-6.68161 -6.40997,-10.01889 -6.7115,-10.48286 -10.2767,-16.054578 -13.81492,-21.59 -1.88513,-2.949222 -6.39423,-9.997721 -10.02016,-15.663332 -7.1832,-11.223864 -11.90027,-18.600645 -16.78336,-26.246665 -1.73482,-2.716389 -6.12081,-9.574388 -9.74663,-15.239999 -3.62582,-5.665611 -8.29922,-12.968111 -10.38532,-16.227777 -2.08611,-3.259666 -4.95272,-7.737816 -6.37024,-9.9514428 -1.41755,-2.2136268 -4.03784,-6.3096475 -5.82289,-9.10226442 -1.78506,-2.79261978 -6.29356,-9.83878278 -10.01889,-15.65814278 -3.72534,-5.819359 -8.23384,-12.866191 -10.01889,-15.659623 -1.78506,-2.793433 -4.40493,-6.89012 -5.82196,-9.103747 -3.24474,-5.068849 -11.63619,-18.185357 -14.49155,-22.651442 -1.19086,-1.862666 -3.54542,-5.545666 -5.23231,-8.184444 -1.6869,-2.638777 -3.07445,-5.051777 -3.08342,-5.362221 -0.0164,-0.56274 0.18942,-0.564659 68.16118,-0.635573 l 68.17749,-0.07113 0.5671,0.635573 c 0.31191,0.349566 1.69452,2.413573 3.07247,4.586684 2.52775,3.986445 4.50274,7.077921 16.49721,25.823332 3.62523,5.66561 8.13314,12.71411 10.01756,15.663332 1.88446,2.949222 6.39428,9.997722 10.02188,15.663332 7.77398,12.1414846 13.06455,20.4180656 17.76967,27.798888 1.88008,2.949222 4.92509,7.711721 6.76673,10.583332 1.84165,2.871611 4.80605,7.507111 6.58758,10.301111 1.78153,2.793999 4.94693,7.746999 7.03422,11.006666 4.9171,7.678927 16.00474,25.007709 20.49548,32.03222 4.2328,6.621017 8.69662,13.600881 13.08552,20.46111 1.78751,2.794 4.8332,7.556503 6.76825,10.583333 1.93503,3.02683 6.48493,10.13883 10.1109,15.80444 7.05355,11.02132 11.45311,17.90221 16.78132,26.24588 1.83352,2.87119 3.76039,5.85399 4.28194,6.62847 0.52157,0.77447 0.94829,1.6655 0.94829,1.9801 0,0.31459 -0.42672,1.20562 -0.94829,1.9801 -0.52155,0.77447 -2.44842,3.75728 -4.28194,6.62846 -5.32821,8.34368 -9.72777,15.22457 -16.78132,26.24588 -3.62597,5.66561 -8.17587,12.77761 -10.1109,15.80444 -4.75095,7.43156 -9.11163,14.24839 -13.44981,21.02556 -1.98721,3.10444 -4.90936,7.67644 -6.49367,10.16 -1.58432,2.48355 -6.09397,9.53205 -10.02149,15.66333 -3.92752,6.13128 -8.31452,12.98927 -9.74889,15.24 -1.43439,2.25072 -4.51979,7.07672 -6.85642,10.72444 -2.33666,3.64772 -5.82599,9.10872 -7.75411,12.13556 -1.92814,3.02683 -5.25571,8.23383 -7.39467,11.57111 -2.13894,3.33727 -5.18456,8.09977 -6.76809,10.58333 -1.58352,2.48355 -6.09317,9.53205 -10.02151,15.66333 -3.92833,6.13128 -8.43774,13.17978 -10.02095,15.66333 -1.58321,2.48356 -4.63028,7.24606 -6.77127,10.58334 -2.141,3.33727 -5.18832,8.09977 -6.77181,10.58333 -1.58349,2.48355 -4.58614,7.18255 -6.67258,10.44222 -2.08641,3.25967 -4.92088,7.70467 -6.29883,9.87778 -1.37795,2.17311 -2.76033,4.23686 -3.07194,4.58611 l -0.56656,0.635 h -68.11633 c -59.76637,0 -68.1359,-0.051 -68.27602,-0.41617 z"
         id="path3793"
         inkscape:connector-curvature="0" />
      <path
         style="fill:#acacac;stroke-width:0.28222221"
         d="m -169.33269,558.12609 c -1.64306,-53.17867 -20.83895,-101.96298 -55.88601,-142.02832 -7.96479,-9.10525 -20.42366,-20.86726 -30.09162,-28.40846 -22.96625,-17.91422 -48.72846,-31.0778 -76.34111,-39.00768 -17.62995,-5.06301 -34.6496,-7.74327 -54.01484,-8.50632 -4.09649,-0.1614 -7.55724,-0.36088 -7.69055,-0.44326 -0.3249,-0.2008 -0.30738,-89.04127 0.0177,-89.55472 0.45223,-0.71433 18.71177,0.0317 30.7844,1.25781 63.11619,6.40997 122.85997,32.3204 171.72589,74.47621 15.76366,13.59905 31.6365,30.3377 44.11304,46.51934 9.94205,12.89445 19.18401,26.90799 26.93729,40.84486 24.736351,44.46476 38.674121,94.49025 40.514548,145.41519 l 0.20145,5.57408 -45.040248,-1.9e-4 -45.04024,-2e-4 z m 180.818127,5.92667 C 11.675175,563.74155 11.179028,545.57841 10.826166,539.91904 6.7027865,473.78255 -12.441786,411.6473 -45.845805,355.98563 -90.623634,281.37163 -157.607,223.48741 -237.81254,190.09603 c -46.04384,-19.16909 -96.16034,-29.67112 -146.61444,-30.72335 -5.85126,-0.12204 -8.81756,-0.28516 -8.95624,-0.49257 -0.36205,-0.5415 -0.26179,-89.289598 0.10113,-89.51388 0.43423,-0.268365 11.90393,-0.168148 20.144,0.176022 79.39814,3.31628 155.93111,25.548617 224.40577,65.188358 72.75712,42.1189 133.578463,102.11906 176.899094,174.51075 40.903059,68.35179 64.672999,145.81081 69.295489,225.81307 0.425647,7.36685 0.846102,19.62838 0.849178,24.765 l 0.0028,4.445 h -43.47885 c -23.913394,0 -43.42082,-0.0952 -43.349813,-0.21167 z m -404.954157,-3.52778 c -0.0737,-0.19402 -0.10148,-30.19777 -0.0617,-66.67499 l 0.0723,-66.32222 2.82222,-0.09 c 3.09988,-0.0988 9.23828,0.31541 14.19186,0.95769 40.45954,5.24615 76.39665,28.95273 97.72599,64.46675 9.19825,15.31538 15.4685,33.35827 17.75205,51.08222 0.62845,4.87776 1.32317,15.76696 1.05113,16.47588 -0.16117,0.42 -5.62966,0.45745 -66.7977,0.45745 -53.0381,0 -66.64948,-0.0719 -66.75618,-0.35278 z m 579.12085,0.003 c -0.0744,-0.1955 -0.10258,-20.42143 -0.0627,-44.94654 l 0.0725,-44.59111 157.19777,-0.14111 157.19778,-0.14111 V 157.72351 -155.26091 H 96.7619 -306.53365 l -0.0711,66.684074 c -0.0565,52.976765 -0.14354,66.711233 -0.42334,66.816174 -0.1937,0.07265 -20.51655,0.163816 -45.16189,0.202585 l -44.80971,0.07032 0.0895,-70.696663 0.0896,-70.69666 0.74207,-4.65667 c 1.38171,-8.67054 2.88457,-14.41622 5.49951,-21.02555 8.44911,-21.35535 24.11095,-38.20601 44.69224,-48.08463 8.7213,-4.18605 16.3299,-6.47104 27.2176,-8.17388 l 4.79777,-0.75038 H 98.173011 510.21745 l 4.66414,0.75602 c 16.18336,2.62319 29.26608,8.38898 41.69399,18.37532 10.38993,8.34872 18.87906,19.10024 24.78199,31.38644 4.24886,8.8435 6.63095,16.80927 8.35522,27.93999 l 0.65577,4.23334 v 320.60442 320.60443 l -0.7751,4.94955 c -1.28676,8.2171 -3.14556,15.09133 -5.88653,21.76966 -8.38835,20.43814 -23.93403,37.08115 -43.57393,46.64964 -8.92166,4.34662 -17.23031,6.87002 -28.08111,8.52845 -3.0631,0.46815 -12.32532,0.50057 -164.75506,0.57703 -129.65122,0.065 -161.53615,0.0107 -161.6447,-0.27446 z M 138.25822,393.53577 c -0.16685,-0.26995 0.83484,-1.87977 12.82931,-20.61783 3.62664,-5.66561 8.25912,-12.90461 10.29442,-16.08666 7.85408,-12.27935 15.68027,-24.50657 21.49608,-33.58445 3.33138,-5.19994 7.55709,-11.80394 9.39044,-14.67555 1.83334,-2.87161 4.96096,-7.76111 6.95026,-10.86556 1.98927,-3.10444 5.15879,-8.05744 7.04336,-11.00666 3.87152,-6.05863 15.35963,-24.01104 19.0533,-29.77444 3.94854,-6.16114 8.88094,-13.86719 12.55457,-19.61445 5.1733,-8.0934 15.93675,-24.91466 20.31596,-31.75 2.13812,-3.33727 5.26393,-8.22677 6.94631,-10.86555 1.68236,-2.63878 4.32413,-6.76628 5.87062,-9.17222 1.54649,-2.40595 4.22583,-6.59695 5.95407,-9.31333 1.72827,-2.71639 4.73964,-7.41539 6.69197,-10.44223 5.17545,-8.02394 4.76586,-7.22195 4.22772,-8.27786 -0.2507,-0.49191 -2.10318,-3.43436 -4.11661,-6.5388 -2.01346,-3.10445 -5.07484,-7.86695 -6.80308,-10.58333 -1.72824,-2.71639 -4.40758,-6.90739 -5.95407,-9.31334 -1.54649,-2.40594 -4.18826,-6.53344 -5.87062,-9.17222 -1.68238,-2.63878 -4.80819,-7.52828 -6.94631,-10.86555 -4.72948,-7.38206 -15.63846,-24.431641 -20.31489,-31.750002 -1.88454,-2.949222 -6.07051,-9.489721 -9.30215,-14.534443 -6.97064,-10.881444 -17.51819,-27.361274 -22.30781,-34.854443 -1.88513,-2.949222 -4.8906,-7.648221 -6.67881,-10.442221 -1.78822,-2.794 -4.95789,-7.747 -7.04371,-11.0066662 -9.07897,-14.1883686 -15.94349,-24.9110678 -21.59056,-33.7255538 -3.33138,-5.199944 -7.55675,-11.803943 -9.38968,-14.675554 -1.83292,-2.871611 -6.54524,-10.237611 -10.47182,-16.368888 -12.15681,-18.982675 -13.02543,-20.386485 -12.77146,-20.640454 0.13775,-0.137752 30.01529,-0.213984 68.20021,-0.174012 l 67.95508,0.07113 3.62568,5.644444 c 1.99415,3.104444 5.07923,7.930444 6.85574,10.724444 1.77653,2.793999 6.56624,10.286999 10.64381,16.65111 4.07758,6.36411 8.70969,13.60311 10.29361,16.086665 1.58391,2.483556 4.46343,6.992055 6.39891,10.018889 1.9355,3.026833 6.92864,10.8373323 11.09587,17.35666521 4.16724,6.51933289 9.24253,14.45683279 11.27839,17.63888779 17.09502,26.719218 28.82437,45.068177 33.82634,52.916663 1.78065,2.794 6.57197,10.287 10.64737,16.65111 10.09266,15.760589 13.88302,21.687709 17.68695,27.657779 1.78026,2.794 4.86757,7.62 6.86074,10.72445 1.99316,3.10444 5.03924,7.86694 6.76912,10.58333 1.72986,2.71639 4.41012,6.90739 5.95616,9.31333 6.15225,9.57416 8.43622,13.20351 8.43622,13.40556 0,0.20136 -2.18897,3.6804 -8.43458,13.40555 -1.54514,2.40594 -4.46865,6.97794 -6.49673,10.16 -2.02807,3.18205 -5.07483,7.94455 -6.77056,10.58333 -1.69574,2.63878 -4.53881,7.08378 -6.31794,9.87778 -1.77913,2.794 -5.10622,8.001 -7.39355,11.57111 -5.52537,8.62417 -23.29552,36.41618 -28.10391,43.95374 -2.10501,3.29977 -8.25619,12.92109 -13.66929,21.3807 -5.41314,8.45961 -11.38355,17.79411 -13.26758,20.74333 -1.88406,2.94922 -6.83633,10.69622 -11.00503,17.21556 -4.16868,6.51933 -8.99756,14.07583 -10.73077,16.79222 -1.73324,2.71639 -4.90059,7.66939 -7.03853,11.00666 -2.13795,3.33728 -5.34402,8.35378 -7.12462,11.14778 -1.7806,2.794 -4.62486,7.239 -6.32059,9.87778 -1.69573,2.63878 -4.74207,7.40128 -6.76961,10.58333 -2.02757,3.18206 -5.31086,8.32556 -7.29621,11.43 l -3.60973,5.64444 -68.03616,0.0711 c -42.68467,0.0446 -68.09779,-0.0286 -68.20162,-0.19662 z"
         id="path3791"
         inkscape:connector-curvature="0" />
      <path
         style="fill:#9c9c9c;stroke-width:0.28222221"
         d="m -169.09143,564.10133 c 0.3275,-0.13755 0.0837,-9.73731 -0.41521,-16.3469 -3.18787,-42.23585 -18.02173,-82.44317 -42.89951,-116.27959 -32.7307,-44.51716 -80.96761,-75.68804 -134.48528,-86.90485 -13.27843,-2.78305 -23.98742,-4.09843 -38.45277,-4.72318 l -7.69056,-0.33215 V 294.7906 250.0665 l 6.27945,0.19098 c 30.62163,0.93131 57.14947,5.30575 85.06958,14.028 58.63081,18.31628 111.88856,54.92947 151.24355,103.97563 26.77506,33.36843 46.66259,71.69937 58.424538,112.60666 7.321606,25.464 11.35888,50.87569 12.476169,78.52844 l 0.196709,4.86844 -45.014446,-0.0223 c -24.75794,-0.0124 -44.88744,-0.0757 -44.73222,-0.14094 z M 11.865732,563.7253 C 12.040399,563.05736 11.47745,544.90178 11.096027,538.90126 7.1179072,476.31854 -10.564557,416.99659 -41.324097,363.04 c -14.179211,-24.87236 -31.000305,-48.12281 -50.943001,-70.41444 -5.596834,-6.25608 -22.746732,-23.45338 -28.811772,-28.89146 -24.17542,-21.67633 -48.41442,-39.01685 -75.95256,-54.33632 -7.5761,-4.2146 -23.88264,-12.32072 -31.89111,-15.85338 -43.43334,-19.15908 -89.45988,-30.50086 -136.73666,-33.69437 -7.6044,-0.5137 -16.32409,-0.8535 -21.94278,-0.85511 l -5.43278,-0.002 v -44.7318 -44.732217 h 5.99722 c 14.00113,0.0028 34.28114,1.302427 51.01167,3.270729 97.97814,11.52683 189.72148,52.346438 264.724439,117.784538 15.538619,13.55705 33.25114,31.27338 46.997027,47.00715 60.438368,69.17879 100.305276,153.44924 115.423243,243.9811 4.189673,25.0893 6.481995,50.53355 6.699757,74.36555 0.04437,4.85549 0.181018,7.98217 0.354415,8.10957 0.155222,0.11405 -19.232146,0.2093 -43.083028,0.21167 -42.548781,0.004 -43.362597,-0.006 -43.224251,-0.53481 z M -393.03476,494.08816 v -66.50739 l 4.72722,0.1754 c 33.29089,1.23512 65.07546,15.21692 88.97061,39.1375 20.98323,21.00555 34.38197,48.27456 38.06718,77.47409 0.61558,4.87742 1.29903,15.18048 1.05005,15.82931 -0.13107,0.34157 -9.62398,0.39847 -66.48398,0.39847 h -66.33108 z m 579.11999,21.77807 V 471.1311 H 343.1489 500.21253 l 0.27525,-0.72393 c 0.17822,-0.4688 0.27522,-110.75813 0.27522,-312.93049 0,-249.32179 -0.0711,-312.30297 -0.35277,-312.68523 -0.33147,-0.44977 -24.72306,-0.47434 -403.789441,-0.40672 l -403.436659,0.072 -0.0711,66.684082 c -0.0565,52.976768 -0.14354,66.711233 -0.42334,66.816172 -0.1937,0.07265 -20.44994,0.163813 -45.01387,0.202582 l -44.66167,0.07049 1e-5,-66.630374 c 10e-6,-62.644542 0.0931,-74.820122 0.56595,-74.054982 0.10711,0.17331 0.27671,-0.75123 0.37689,-2.05453 0.82047,-10.67406 5.15651,-24.63625 10.74085,-34.58592 4.24802,-7.56872 8.76695,-13.50621 15.09729,-19.83654 6.4161,-6.41611 12.65994,-11.13604 20.29743,-15.3435 10.06708,-5.54592 23.8167,-9.75251 34.33048,-10.50314 1.42301,-0.10159 2.29194,-0.26319 1.98816,-0.36975 -0.29679,-0.10411 1.22104,-0.27373 3.37296,-0.37694 5.27785,-0.25312 814.27639,-0.17219 818.03443,0.0818 1.62983,0.11017 2.70933,0.23523 2.39889,0.27791 -0.31045,0.0427 0.89605,0.25266 2.68111,0.46662 18.53774,2.22202 35.66547,10.4875 49.63524,23.95292 14.73166,14.19978 24.76839,34.62073 26.90495,54.7414 0.18951,1.78463 0.42466,3.11515 0.52259,2.95671 0.0979,-0.15844 0.26077,1.14786 0.36189,2.90289 0.24037,4.17134 0.24037,631.5661 0,635.73745 -0.10112,1.75503 -0.27206,3.04823 -0.37987,2.87379 -0.10783,-0.17447 -0.28225,0.71664 -0.38763,1.98024 -0.91962,11.02693 -5.28718,24.64302 -11.19341,34.89598 -9.29028,16.12748 -22.54614,28.45164 -39.2268,36.46969 -8.39151,4.03363 -16.58798,6.46534 -27.4186,8.13455 -3.00363,0.46292 -12.74462,0.4969 -164.41225,0.57356 l -161.21944,0.0815 z M 138.49814,393.08001 c 0.0928,-0.24198 2.09657,-3.44873 4.4527,-7.12611 4.97129,-7.759 8.60264,-13.43081 15.75463,-24.60724 2.83089,-4.42383 7.76817,-12.13702 10.97173,-17.14042 3.20359,-5.00338 6.9042,-10.78905 8.22359,-12.85698 1.31939,-2.06795 3.94013,-6.16576 5.82385,-9.10626 3.93471,-6.142 9.26823,-14.47351 17.51468,-27.35967 3.17867,-4.96711 8.50511,-13.28561 11.83649,-18.48555 3.33138,-5.19995 7.55672,-11.80394 9.38964,-14.67556 1.8329,-2.87161 5.08274,-7.95161 7.22187,-11.28888 2.13913,-3.33728 5.31061,-8.29028 7.04774,-11.00667 11.49644,-17.97722 23.33394,-36.49238 26.25344,-41.06333 1.88372,-2.94922 8.25452,-12.91872 14.1574,-22.15444 5.90287,-9.23573 10.86877,-17.0495 11.03531,-17.36395 0.21607,-0.40792 0.21519,-0.73138 -0.003,-1.12889 -0.16821,-0.30644 -5.13411,-8.11366 -11.03532,-17.34938 -5.90123,-9.23573 -12.27071,-19.20522 -14.15443,-22.15445 -2.9195,-4.57095 -14.757,-23.086112 -26.25344,-41.063328 -1.73713,-2.716388 -4.9086,-7.669388 -7.04774,-11.006666 -2.13913,-3.337277 -5.38897,-8.417277 -7.22187,-11.288888 -1.83292,-2.871611 -6.05826,-9.47561 -9.38964,-14.675555 C 209.74457,34.977849 204.41813,26.65935 201.23946,21.692239 192.99302,8.8060748 187.6595,0.47457896 183.72478,-5.6674342 c -1.88372,-2.9404872 -4.50446,-7.0382968 -5.82385,-9.1062468 -1.31939,-2.067946 -5.02,-7.853592 -8.22359,-12.856991 -3.2037,-5.003396 -8.14098,-12.716585 -10.97187,-17.140418 -7.15199,-11.176409 -10.78334,-16.848242 -15.75463,-24.607239 -2.35613,-3.677373 -4.35985,-6.884122 -4.4527,-7.126111 -0.15263,-0.397744 6.3603,-0.439982 67.84393,-0.439982 h 68.01276 l 2.39037,3.739445 c 14.06491,22.003059 45.65094,71.3770292 47.34822,74.0127729 1.19947,1.8626666 8.31119,12.9751661 15.80385,24.6944431 7.49266,11.719277 14.60435,22.831776 15.80374,24.694443 1.19942,1.862666 7.74559,12.086166 14.54709,22.718887 6.80147,10.632722 16.99838,26.571221 22.65979,35.418891 5.66138,8.84766 14.79948,23.13516 20.30688,31.74999 5.50739,8.61484 10.31375,16.10558 10.68084,16.64606 0.36706,0.54051 0.6674,1.2253 0.6674,1.52177 0,0.29645 -1.31603,2.58473 -2.92453,5.08503 -1.6085,2.50032 -16.61188,25.94553 -33.34086,52.10047 -16.72898,26.15495 -30.98978,48.44344 -31.69062,49.53 -0.70087,1.08656 -5.17265,8.07155 -9.93733,15.52222 -4.76467,7.45067 -9.23648,14.43567 -9.93738,15.52222 -0.7009,1.08656 -10.89886,17.02506 -22.66213,35.41889 -11.76328,18.39383 -22.81118,35.66583 -24.55088,38.38222 -4.46487,6.97148 -9.7814,15.28078 -12.68527,19.82611 l -2.47918,3.88055 h -68.01276 c -61.48363,0 -67.99656,-0.0422 -67.84393,-0.43998 z"
         id="path3789"
         inkscape:connector-curvature="0" />
      <path
         style="fill:#ebab07;stroke-width:0.28222221"
         d="m 138.7409,393.00435 c 0.0742,-0.28361 3.94459,-6.47486 8.60095,-13.75834 4.65633,-7.28347 13.58293,-21.24368 19.83692,-31.02268 6.25396,-9.779 17.2153,-26.924 24.35854,-38.1 7.14325,-11.176 14.53182,-22.733 16.4191,-25.68222 1.88725,-2.94922 8.30176,-12.98222 14.25445,-22.29555 5.95269,-9.31334 12.36675,-19.34633 14.25349,-22.29556 5.79713,-9.06173 22.90417,-35.81902 26.52415,-41.48666 1.88372,-2.94922 8.25452,-12.91872 14.1574,-22.15444 5.90287,-9.23573 10.86877,-17.0495 11.03531,-17.36395 0.21607,-0.40792 0.21519,-0.73138 -0.003,-1.12889 -0.16821,-0.30644 -5.13411,-8.11366 -11.03532,-17.34938 -5.90123,-9.23573 -12.27071,-19.20522 -14.15443,-22.15445 -3.61998,-5.66764 -20.72702,-32.424929 -26.52415,-41.486661 -1.88674,-2.949222 -8.3008,-12.982221 -14.25349,-22.295554 -5.95269,-9.313333 -12.36729,-19.346332 -14.25468,-22.295554 -3.2615,-5.096431 -19.50178,-30.4995452 -26.25191,-41.0633312 -1.73575,-2.7163888 -8.2725,-12.9398878 -14.52612,-22.7188878 -6.25362,-9.778999 -15.17997,-23.739205 -19.8363,-31.022677 -4.65635,-7.283475 -8.52678,-13.474725 -8.60095,-13.758333 -0.13044,-0.498334 2.14458,-0.515654 67.73475,-0.515654 h 67.86973 l 14.49154,22.648332 c 16.77377,26.215203 29.57621,46.2264312 50.05897,78.246107 8.04286,12.572999 15.60489,24.383998 16.80453,26.246665 1.19964,1.862666 7.74604,12.086166 14.54754,22.718887 6.80147,10.632722 16.99838,26.571221 22.65979,35.418891 5.66138,8.84766 14.79948,23.13516 20.30688,31.74999 5.50739,8.61484 10.31375,16.10558 10.68084,16.64606 0.36706,0.54051 0.6674,1.2253 0.6674,1.52177 0,0.29645 -1.31603,2.58473 -2.92453,5.08503 -1.6085,2.50032 -16.61188,25.94553 -33.34086,52.10047 -16.72898,26.15495 -30.98978,48.44344 -31.69062,49.53 -0.70087,1.08656 -5.17265,8.07155 -9.93733,15.52222 -4.76467,7.45067 -9.23648,14.43567 -9.93738,15.52222 -0.7009,1.08656 -10.89759,17.02506 -22.65934,35.41889 -11.76175,18.39383 -22.36591,34.96733 -23.56479,36.83 -1.19885,1.86266 -5.26517,8.21266 -9.03622,14.11111 -3.77105,5.89844 -6.9955,10.81774 -7.16548,10.93179 -0.16996,0.11405 -30.77207,0.2093 -68.00469,0.21167 -65.42278,0.004 -67.69117,-0.013 -67.56087,-0.51133 z"
         id="path3787"
         inkscape:connector-curvature="0" />
      <path
         style="fill:#e19c0c;stroke-width:0.28222221"
         d="m 138.7409,393.00435 c 0.0742,-0.28361 3.94459,-6.47486 8.60095,-13.75834 4.65633,-7.28347 13.58293,-21.24368 19.83692,-31.02268 6.25396,-9.779 17.2153,-26.924 24.35854,-38.1 7.14325,-11.176 14.53182,-22.733 16.4191,-25.68222 1.88725,-2.94922 8.30176,-12.98222 14.25445,-22.29555 5.95269,-9.31334 12.36675,-19.34633 14.25349,-22.29556 5.79713,-9.06173 22.90417,-35.81902 26.52415,-41.48666 1.88372,-2.94922 8.25452,-12.91872 14.1574,-22.15444 5.90287,-9.23573 10.86877,-17.0495 11.03531,-17.36395 0.21607,-0.40792 0.21519,-0.73138 -0.003,-1.12889 -0.16821,-0.30644 -5.13411,-8.11366 -11.03532,-17.34938 -5.90123,-9.23573 -12.27071,-19.20522 -14.15443,-22.15445 -3.61998,-5.66764 -20.72702,-32.424929 -26.52415,-41.486661 -1.88674,-2.949222 -8.3008,-12.982221 -14.25349,-22.295554 -5.95269,-9.313333 -12.36729,-19.346332 -14.25468,-22.295554 -3.2615,-5.096431 -19.50178,-30.4995452 -26.25191,-41.0633312 -1.73575,-2.7163888 -8.2725,-12.9398878 -14.52612,-22.7188878 -6.25362,-9.778999 -15.17997,-23.739205 -19.8363,-31.022677 -4.65635,-7.283475 -8.52678,-13.474725 -8.60095,-13.758333 -0.13044,-0.498334 2.14455,-0.515654 67.73334,-0.515654 h 67.86832 l 22.25141,34.783887 c 12.23829,19.131138 24.24701,37.8953868 26.68606,41.69833098 20.93022,32.63425102 30.94708,48.41417502 30.81093,48.53750602 -0.0885,0.08021 -0.22112,-0.02342 -0.29467,-0.230209 -0.0736,-0.20684 -1.04044,-1.738545 -2.14858,-3.403825 -1.10818,-1.66528 -2.14184,-3.224502 -2.29707,-3.464927 -0.15522,-0.240425 -0.52733,-0.80422 -0.82688,-1.252841 -0.29958,-0.448648 -2.08596,-3.165206 -3.96971,-6.036817 -4.05686,-6.184276 -3.76024,-5.743953 -6.06896,-9.009306 -1.00894,-1.427015 -2.36288,-3.350023 -3.00872,-4.27335 l -1.17429,-1.678776 -0.94237,1.187518 c -0.9096,1.146203 -3.23957,4.370648 -5.05858,7.000581 -1.13589,1.642242 -3.00595,4.560423 -4.06928,6.349999 -0.46115,0.776112 -0.96709,1.624872 -1.12429,1.886134 -2.80351,4.659418 -7.44578,13.881903 -9.9892,19.844976 -2.52334,5.915999 -2.36364,5.524218 -4.0848,10.018888 -0.94979,2.480339 -4.21047,12.399715 -4.82408,14.675555 -0.27203,1.008945 -0.598,2.102414 -0.72435,2.429933 -0.24607,0.637879 -2.86351,11.176508 -3.53204,14.221177 -7.87126,35.847558 -8.16675,74.955088 -0.838,110.913328 0.20563,1.00894 0.58939,2.91394 0.85279,4.23333 0.2634,1.31939 0.65552,2.96127 0.87139,3.6486 0.21587,0.68735 0.39249,1.52199 0.39249,1.85473 0,0.33274 0.17602,1.16739 0.39118,1.85474 0.21514,0.68732 0.6113,2.07521 0.88034,3.08415 2.2183,8.31895 5.97775,19.937 7.6393,23.6082 0.22138,0.48915 0.40251,0.97793 0.40251,1.08625 0,0.18688 0.17052,0.60138 1.23653,3.00597 0.25123,0.56676 0.4568,1.10614 0.4568,1.19871 0,0.0925 0.36678,0.96235 0.81503,1.93289 0.44826,0.97056 1.29941,2.84415 1.8914,4.16354 1.49741,3.33722 5.39719,10.92725 7.17787,13.97 0.81754,1.397 1.62899,2.794 1.80317,3.10444 0.43463,0.7745 4.46815,6.93694 6.00355,9.17222 1.62647,2.36787 7.11273,9.42888 7.40949,9.53629 0.12437,0.045 0.65422,-0.58999 1.17743,-1.41111 0.52321,-0.82113 1.16817,-1.68346 1.43327,-1.91629 0.42243,-0.37104 6.89412,-10.00876 11.65495,-17.35667 0.90512,-1.397 2.22877,-3.40506 2.94144,-4.46235 0.71266,-1.05732 1.56467,-2.36948 1.8934,-2.91592 0.3287,-0.54644 0.82101,-1.20537 1.09406,-1.46428 0.27302,-0.25894 0.0141,0.29122 -0.57568,1.22256 -1.6484,2.60366 -16.85752,26.37832 -19.31811,30.19777 -1.19995,1.86267 -11.80504,18.43617 -23.56682,36.83 -11.76178,18.39383 -22.36597,34.96733 -23.56485,36.83 -1.19885,1.86266 -5.26517,8.21266 -9.03622,14.11111 -3.77105,5.89844 -6.9955,10.81774 -7.16548,10.93179 -0.16996,0.11405 -30.77207,0.2093 -68.00469,0.21167 -65.42278,0.004 -67.69117,-0.013 -67.56087,-0.51133 z M 357.96754,262.37297 c -0.005,-0.18539 0.3162,-0.69339 0.7136,-1.12889 0.47602,-0.52166 0.62755,-0.59924 0.44402,-0.22741 -0.44417,0.89995 -1.14783,1.72438 -1.15762,1.3563 z m 2.00355,-3.13625 c 0.35721,-0.66855 0.83617,-1.36705 1.06437,-1.55222 0.49982,-0.40561 -0.28868,1.01422 -1.15556,2.08082 -0.46437,0.57133 -0.44901,0.48238 0.0912,-0.5286 z m 1.85208,-2.89842 c 0.28042,-0.47761 0.69018,-1.01736 0.91059,-1.19944 0.22045,-0.18209 0.0448,0.20867 -0.39025,0.86836 -0.91359,1.38521 -1.27384,1.61443 -0.52034,0.33108 z m 1.49761,-2.15776 c 0,-0.16391 0.26154,-0.59783 0.58121,-0.96427 l 0.58118,-0.66627 -0.49578,0.84667 c -0.65249,1.11433 -0.66661,1.13092 -0.66661,0.78387 z m 1.97556,-3.18276 c 0.16614,-0.31044 0.36559,-0.56444 0.4432,-0.56444 0.0776,0 0.005,0.254 -0.16098,0.56444 -0.16614,0.31044 -0.36559,0.56444 -0.4432,0.56444 -0.0776,0 -0.005,-0.254 0.16098,-0.56444 z M 362.06893,60.580512 c -0.15316,-0.402224 -0.12073,-0.434623 0.15799,-0.157988 0.19287,0.191459 0.2796,0.419184 0.1927,0.50608 -0.0869,0.08687 -0.24471,-0.06976 -0.35069,-0.348092 z m -1.67417,-2.693275 -0.50772,-0.917222 0.58172,0.705555 c 0.5159,0.625743 0.74498,1.128889 0.51398,1.128889 -0.0441,0 -0.30872,-0.41275 -0.58798,-0.917222 z m -1.51754,-2.257778 c -0.15361,-0.194028 -0.43019,-0.670278 -0.61456,-1.058333 -0.32298,-0.679789 -0.31846,-0.684925 0.12434,-0.141111 0.54732,0.672197 1.04967,1.552222 0.88604,1.552222 -0.0641,0 -0.24217,-0.15875 -0.39582,-0.352778 z m -1.54643,-2.398889 c -0.48669,-0.555074 -1.42966,-2.328333 -1.23814,-2.328333 0.0683,0 0.51489,0.635 0.99243,1.411111 0.90478,1.470434 0.98132,1.756213 0.24571,0.917222 z m -2.44275,-3.739444 c -0.34897,-0.620889 -0.57974,-1.128889 -0.51282,-1.128889 0.0669,0 0.45784,0.508 0.86873,1.128889 0.41089,0.620889 0.64166,1.128889 0.5128,1.128889 -0.12883,0 -0.51977,-0.508 -0.86871,-1.128889 z"
         id="path3785"
         inkscape:connector-curvature="0" />
      <path
         style="fill:#d78e11;stroke-width:0.28222221"
         d="m 138.7409,393.00435 c 0.0742,-0.28361 3.94459,-6.47486 8.60095,-13.75834 4.65633,-7.28347 13.58293,-21.24368 19.83692,-31.02268 6.25396,-9.779 17.2153,-26.924 24.35854,-38.1 7.14325,-11.176 14.53182,-22.733 16.4191,-25.68222 1.88725,-2.94922 8.30176,-12.98222 14.25445,-22.29555 15.34685,-24.01107 19.8676,-31.07701 21.30657,-33.30222 0.5019,-0.77611 1.65972,-2.55411 2.57293,-3.95111 0.91324,-1.397 1.7097,-2.667 1.76993,-2.82223 0.0602,-0.15522 0.53647,-0.87074 1.05833,-1.59004 0.52186,-0.7193 0.94883,-1.43399 0.94883,-1.5882 0,-0.15424 0.1905,-0.43852 0.42334,-0.63176 0.67936,-0.56382 0.49978,-0.0835 -0.72018,1.92623 -0.62893,1.03606 -1.29114,2.13777 -1.47156,2.44822 -0.18045,0.31044 -0.68188,1.09321 -1.11427,1.73948 -0.43242,0.64626 -0.78622,1.26164 -0.78622,1.36753 0,0.10589 -0.26263,0.56137 -0.58366,1.01219 -0.321,0.45082 -0.48723,0.81969 -0.3694,0.81969 0.11786,0 -0.0322,0.19992 -0.33356,0.44427 -0.3013,0.24432 -0.36946,0.35171 -0.15144,0.23859 0.46053,-0.2389 0.58296,-0.46603 -1.84232,3.41825 l -1.76767,2.83108 0.3845,1.68447 c 0.21147,0.92646 0.5967,2.76395 0.85607,4.08334 0.45025,2.29037 0.68893,3.38483 1.67699,7.69055 0.24045,1.04775 0.6339,2.76225 0.87438,3.81 0.24045,1.04775 0.61183,2.6035 0.8253,3.45722 1.0219,4.08723 1.33912,5.32672 1.69734,6.63223 0.21297,0.77611 0.58663,2.14136 0.83036,3.03388 1.89969,6.95689 4.78132,16.41704 6.38305,20.955 2.00775,5.68833 3.43746,9.67692 3.79357,10.58334 3.67831,9.36243 5.3712,13.51327 6.61825,16.22777 0.28524,0.62089 0.89671,1.95439 1.35876,2.96334 2.8612,6.24744 4.06838,8.7687 5.94563,12.41777 1.9124,3.71738 3.89044,7.37235 4.58208,8.46667 0.14718,0.23283 0.38371,0.68961 0.52569,1.0151 0.21319,0.48878 1.75167,3.14914 2.84032,4.91156 0.58535,0.94762 2.12753,3.54661 2.26077,3.81 0.18488,0.36545 0.6539,1.08518 4.1383,6.35 2.85488,4.31369 4.74588,7.06964 5.91527,8.6209 l 0.59744,0.7926 1.76304,-2.72799 c 0.96966,-1.50038 1.87553,-2.65842 2.01309,-2.57342 0.13755,0.085 0.25008,0.0203 0.25008,-0.14353 0,-0.24204 1.7986,-2.91223 2.77116,-4.11407 0.1276,-0.15765 0.58432,-0.8879 1.01499,-1.62278 0.43067,-0.73488 0.89797,-1.33615 1.03843,-1.33615 0.40214,0 0.31163,0.24881 -0.54779,1.50608 -1.00499,1.47018 -1.83405,2.75993 -6.74201,10.48836 -10.59357,16.68145 -20.22895,31.63011 -20.50764,31.81624 -0.17078,0.11405 -30.77354,0.2093 -68.00616,0.21167 -65.42278,0.004 -67.69117,-0.013 -67.56087,-0.51133 z m 164.18021,-44.92213 c 0.45133,-0.85951 1.41523,-2.12528 1.41523,-1.85849 0,0.39607 -0.82637,1.77244 -1.2976,2.16126 -0.45302,0.3738 -0.46149,0.35204 -0.11763,-0.30277 z m 1.70372,-2.43818 c -0.003,-0.17684 0.2435,-0.62134 0.54878,-0.98777 0.72232,-0.86702 0.73084,-0.31858 0.009,0.60373 -0.30353,0.38805 -0.5547,0.56089 -0.55818,0.38404 z m 1.68707,-2.53393 c 0,-0.15522 0.18646,-0.52874 0.41436,-0.83007 0.22789,-0.3013 0.41435,-0.42082 0.41435,-0.2656 0,0.15522 -0.18646,0.52874 -0.41435,0.83005 -0.2279,0.30132 -0.41436,0.42084 -0.41436,0.26562 z m 1.97555,-3.21234 c 0.16615,-0.31044 0.36559,-0.56444 0.4432,-0.56444 0.0776,0 0.005,0.254 -0.16098,0.56444 -0.16614,0.31045 -0.36559,0.56445 -0.4432,0.56445 -0.0776,0 -0.005,-0.254 0.16098,-0.56445 z M 251.27856,216.963 c 0,-0.3221 0.96989,-1.80744 1.18023,-1.80744 0.1165,0 -0.0504,0.4445 -0.37095,0.98778 -0.55226,0.93599 -0.80928,1.19631 -0.80928,0.81966 z m 1.97556,-3.11066 c 0,-0.15522 0.18646,-0.52874 0.41436,-0.83007 0.22789,-0.3013 0.41436,-0.42082 0.41436,-0.2656 0,0.15522 -0.18647,0.52875 -0.41436,0.83005 -0.2279,0.30132 -0.41436,0.42085 -0.41436,0.26562 z m 1.70626,-2.95427 c 0.17326,-0.32377 0.37123,-0.53244 0.43993,-0.46375 0.19752,0.19753 -0.20292,1.05235 -0.49299,1.05235 -0.14416,0 -0.12031,-0.26467 0.0531,-0.5886 z m 3.09152,-4.88019 c 0,-0.0586 0.1934,-0.26706 0.42979,-0.46324 0.35936,-0.29825 0.40067,-0.28078 0.25203,0.10657 -0.15181,0.39559 -0.68182,0.67287 -0.68182,0.35667 z m 0.28222,-95.14342 c -0.20249,-0.24401 -0.22993,-0.42334 -0.0647,-0.42334 0.15762,0 0.35966,0.1905 0.44901,0.42334 0.0894,0.23283 0.11851,0.42333 0.0648,0.42333 -0.0537,0 -0.2558,-0.1905 -0.44904,-0.42333 z m -3.48872,-5.36223 c -0.0894,-0.23283 -0.053,-0.42333 0.0807,-0.42333 0.13374,0 0.31626,0.1905 0.40561,0.42333 0.0893,0.23284 0.053,0.42334 -0.0807,0.42334 -0.13374,0 -0.31626,-0.1905 -0.40561,-0.42334 z m -1.2862,-2.07393 c -0.46101,-0.8614 -0.36553,-1.10132 0.14704,-0.36949 0.24867,0.35501 0.38597,0.71165 0.30508,0.79251 -0.0808,0.0809 -0.28431,-0.1095 -0.45212,-0.42302 z m -1.88902,-3.01487 c -0.25745,-0.39291 -0.39672,-0.785708 -0.30955,-0.872886 0.0872,-0.08721 0.36167,0.234272 0.60991,0.714356 0.54419,1.0523 0.35179,1.15384 -0.30036,0.15853 z m -1.50696,-2.232661 c -0.19202,-0.231366 -0.29489,-0.583353 -0.22863,-0.782179 0.0763,-0.228741 0.24991,-0.119718 0.4729,0.296898 0.41486,0.775236 0.25687,1.089124 -0.24427,0.485281 z m -1.67609,-2.654187 c -0.32738,-0.459768 -0.59523,-0.907852 -0.59523,-0.995765 0,-0.08794 -0.3652,-0.703326 -0.81156,-1.367564 -0.75328,-1.120958 -1.97431,-3.004142 -5.17471,-7.981018 -0.69873,-1.086555 -2.00878,-3.118555 -2.91124,-4.515555 -0.90246,-1.397 -2.61177,-4.064 -3.79848,-5.926666 -2.21432,-3.47568 -21.09998,-33.021579 -27.23973,-42.615553 -3.2615,-5.096431 -19.50178,-30.4995452 -26.25191,-41.0633312 -1.73575,-2.7163888 -8.2725,-12.9398878 -14.52612,-22.7188878 -6.25362,-9.778999 -15.17997,-23.739205 -19.8363,-31.022677 -4.65636,-7.283475 -8.52678,-13.474725 -8.60095,-13.758333 -0.1303,-0.498334 2.14486,-0.515654 67.73926,-0.515654 h 67.87408 l 8.70314,13.617222 c 13.33339,20.861843 15.51833,24.30177 15.91468,25.055732 0.84692,1.611094 -0.80278,-0.35582 -2.2553,-2.688925 -0.81096,-1.302665 -1.88586,-2.788232 -2.38867,-3.301258 -0.50278,-0.513023 -1.58033,-1.980522 -2.39457,-3.261106 -0.81424,-1.280583 -1.58349,-2.328333 -1.70948,-2.328333 -0.12601,0 -0.46301,0.369141 -0.74893,0.820316 -0.28595,0.451171 -1.18663,1.787124 -2.00155,2.968777 -0.81491,1.181656 -1.48166,2.201485 -1.48166,2.266292 0,0.0648 -0.545,0.919604 -1.21113,1.899553 -0.66613,0.979952 -2.15838,3.367241 -3.31611,5.305089 -1.15773,1.937848 -2.25829,3.779348 -2.44566,4.092222 -0.18733,0.312874 -0.46761,0.848436 -0.62278,1.190139 -0.15519,0.341704 -0.58496,1.103704 -0.95509,1.693334 -1.45077,2.311168 -7.17347,13.485398 -10.19669,19.9101723 -2.2926,4.8721063 -5.55958,12.7260455 -8.77542,21.0963247 -0.20873,0.543277 -0.70996,1.846142 -1.11382,2.895255 -0.70877,1.841037 -5.63053,16.660988 -6.48981,19.54141 -0.7708,2.583913 -2.04492,7.032864 -2.54593,8.889999 -0.2722,1.008945 -0.65932,2.405945 -0.86024,3.104445 -0.74334,2.58397 -3.27363,13.20512 -4.2022,17.638887 -0.26004,1.241778 -0.64598,3.083278 -0.85759,4.092222 -0.21161,1.008945 -0.59315,2.913945 -0.84788,4.233333 -0.25473,1.319389 -0.59303,3.033889 -0.75181,3.81 -0.15875,0.776111 -0.40039,2.17012 -0.53696,3.097812 l -0.2483,1.686729 1.69653,2.618881 c 0.93308,1.440406 1.61851,2.745119 1.52315,2.89941 -0.0953,0.154263 -0.0343,0.280501 0.13555,0.280501 0.1699,0 0.55474,0.53975 0.85519,1.199444 0.60644,1.331553 1.65278,3.154539 2.7942,4.868333 1.5061,2.261334 2.36448,3.82349 2.19439,3.993586 -0.0721,0.07214 -0.39898,-0.245026 -0.72636,-0.704794 z m 58.26625,-121.316057 c -0.15317,-0.402223 -0.12074,-0.434639 0.15798,-0.157988 0.19288,0.191443 0.2796,0.419168 0.19271,0.506061 -0.0869,0.08689 -0.24472,-0.06974 -0.35069,-0.348073 z m -1.72308,-2.641504 c -0.10234,-0.165548 -0.12551,-0.361526 -0.0515,-0.435505 0.074,-0.07398 0.20972,0.06147 0.30164,0.300998 0.19084,0.497307 0.0282,0.584782 -0.2501,0.134507 z m -1.83295,-2.849829 c -0.32317,-0.630162 -0.31561,-0.637731 0.17201,-0.172003 0.28053,0.267945 0.43265,0.564572 0.33805,0.659173 -0.0946,0.0946 -0.32413,-0.124627 -0.51006,-0.48717 z m -1.32901,-1.999727 c -0.53702,-0.678214 -0.98877,-1.69941 -0.66261,-1.497827 0.17182,0.106183 0.50527,0.566011 0.74098,1.021834 0.44447,0.859541 0.40677,1.088674 -0.0784,0.475993 z m -1.69334,-2.54 c -0.15361,-0.194028 -0.44165,-0.670278 -0.64005,-1.058333 -0.35597,-0.696231 -0.35312,-0.698788 0.21663,-0.19339 0.31756,0.281694 0.64164,0.757944 0.72021,1.058333 0.16611,0.635257 0.0915,0.683841 -0.29679,0.19339 z"
         id="path3783"
         inkscape:connector-curvature="0" />
      <path
         style="fill:#cc7c17;stroke-width:0.28222221"
         d="m 138.6719,393.19039 c 0,-0.35442 1.0705,-2.08238 7.66374,-12.3704 2.33771,-3.64772 5.38472,-8.41022 6.77116,-10.58333 1.38645,-2.17311 4.03079,-6.30061 5.87629,-9.17222 1.84551,-2.87161 4.45006,-6.93561 5.78785,-9.03111 1.33778,-2.0955 3.53751,-5.52752 4.88831,-7.62672 1.3508,-2.09919 3.09098,-4.80652 3.86709,-6.0163 0.77611,-1.20977 2.45886,-3.79766 3.73945,-5.75087 1.28058,-1.95323 2.32833,-3.60183 2.32833,-3.66361 0,-0.0617 0.49635,-0.83634 1.10301,-1.7213 0.60666,-0.88494 1.78898,-2.68848 2.6274,-4.00787 0.83843,-1.31938 1.77081,-2.76594 2.072,-3.21459 0.30118,-0.44862 0.67459,-1.01496 0.82981,-1.25849 1.28668,-2.01879 2.19552,-3.41807 2.68554,-4.13469 0.59363,-0.86812 2.33836,-3.59619 3.22761,-5.04667 0.38109,-0.6216 0.55468,-0.72263 0.73638,-0.42867 0.14864,0.24051 0.0423,0.69339 -0.28372,1.20831 -0.37417,0.59097 -0.45833,1.03093 -0.29789,1.55753 0.12299,0.40366 0.42147,1.43244 0.66328,2.28616 0.92194,3.25479 3.07374,10.40576 3.86402,12.84111 2.19665,6.7693 4.01729,12.18763 5.21572,15.52223 0.72522,2.01788 1.42367,3.98638 1.55211,4.37444 0.12847,0.38806 0.50664,1.40406 0.84043,2.25778 0.33378,0.85372 0.90094,2.37772 1.26035,3.38666 0.7561,2.12254 5.21191,13.19925 6.0474,15.0333 0.31069,0.68199 0.81141,1.86546 1.11277,2.62998 0.30133,0.76448 0.98707,2.34176 1.52386,3.50503 0.53679,1.16326 1.62317,3.57553 2.41424,5.36058 0.79104,1.78506 2.57576,5.54333 3.96601,8.35169 l 2.52778,5.10613 2.77984,0.18407 c 1.52891,0.10126 8.68533,0.20252 15.90316,0.2251 7.21783,0.0226 17.37783,0.1259 22.57778,0.22967 5.19994,0.10375 -20.99381,0.21297 -58.20833,0.24266 -51.43644,0.0411 -67.66278,-0.0251 -67.66278,-0.27559 z m 54.649,-84.96585 c 0.12621,-1.0841 0.66655,-1.76403 0.66655,-0.83876 0,0.34149 -0.12302,0.62089 -0.27336,0.62089 -0.15036,0 -0.2052,0.17765 -0.12186,0.39477 0.0833,0.21714 0.0328,0.46812 -0.11218,0.55775 -0.14967,0.0925 -0.21847,-0.22512 -0.15915,-0.73465 z m 1.69339,-3.18121 c 0.0894,-0.23283 0.27187,-0.42333 0.40561,-0.42333 0.13375,0 0.17007,0.1905 0.0807,0.42333 -0.0893,0.23284 -0.27187,0.42334 -0.40561,0.42334 -0.13375,0 -0.17007,-0.1905 -0.0807,-0.42334 z M 193.59234,9.2462398 c -0.10044,-0.2617441 -0.11912,-0.5394 -0.0415,-0.6170111 0.0776,-0.077611 0.22329,0.073045 0.32374,0.3347889 0.10044,0.2617442 0.11912,0.5394 0.0415,0.6170111 -0.0776,0.077611 -0.22329,-0.073045 -0.32374,-0.3347889 z m -1.71537,-2.8241694 c -0.36613,-0.5587971 -0.40302,-0.8133079 -0.15342,-1.0583332 0.18077,-0.1774359 0.30455,-0.1956082 0.27508,-0.040386 -0.10696,0.5634171 0.022,0.9562196 0.45675,1.3909519 0.24393,0.2439218 0.32205,0.4434924 0.17357,0.4434924 -0.14845,0 -0.48683,-0.3310777 -0.75198,-0.7357251 z m -1.41089,-2.1570525 c -1.25834,-1.8025701 -2.40529,-3.60743759 -2.40529,-3.78500616 0,-0.11015415 -0.24556,-0.46246624 -0.54571,-0.78291544 -0.30011,-0.3204492 -0.71433,-0.9001336 -0.92044,-1.2881891 -0.20613,-0.3880556 -1.12104,-1.8485555 -2.03318,-3.2455554 -0.91212,-1.3969999 -2.31834,-3.5559998 -3.12494,-4.7977775 -0.80659,-1.2417773 -2.29181,-3.5277773 -3.3005,-5.0799993 -1.00872,-1.552222 -2.52705,-3.901722 -3.37411,-5.221111 -1.65122,-2.571981 -3.30637,-5.141781 -7.39902,-11.487861 -1.422,-2.204934 -3.21883,-4.998934 -3.99296,-6.208888 -0.77414,-1.209954 -2.83258,-4.422416 -4.57432,-7.138805 -1.74173,-2.716389 -4.30143,-6.716889 -5.68821,-8.89 -1.38676,-2.173111 -4.43405,-6.93561 -6.77176,-10.583332 -6.59324,-10.288016 -7.66374,-12.015972 -7.66374,-12.370389 0,-0.250543 15.75723,-0.316682 65.68722,-0.27572 36.12797,0.02964 61.05172,0.139226 55.38611,0.243524 -5.66561,0.104301 -15.95261,0.207707 -22.86,0.229793 -6.90739,0.0221 -13.7946,0.121988 -15.30494,0.222005 -2.45971,0.162887 -2.76547,0.243654 -2.93257,0.774649 -0.10259,0.326043 -0.61976,1.481805 -1.14926,2.56836 -1.28767,2.642264 -5.88496,13.08131 -6.15228,13.97 -0.11675,0.388055 -0.30816,0.832555 -0.42536,0.987777 -0.24176,0.320116 -4.51559,11.015915 -4.51559,11.300776 0,0.101766 -0.18463,0.585224 -0.41029,1.074349 -0.22567,0.489125 -0.86877,2.159319 -1.42909,3.711541 -0.56035,1.552222 -1.19335,3.266722 -1.40665,3.81 -1.20086,3.058343 -5.54262,15.999239 -7.19628,21.448887 -0.49456,1.629834 -1.26652,4.169833 -1.71543,5.644444 -1.26413,4.1523216 -2.27649,7.6634367 -2.52258,8.7488887 -0.12317,0.5432778 -0.47888,1.86645402 -0.79045,2.94039418 -0.51009,1.75819072 -0.5244,2.01689252 -0.14354,2.59814612 0.23264,0.3550383 0.3289,0.7977349 0.21392,0.9837645 -0.1275,0.2063072 -0.0895,0.2643942 0.0973,0.1489202 0.16848,-0.1041259 0.38611,-0.060249 0.48358,0.097505 0.36481,0.5902508 -0.69449,0.2608439 -1.11963,-0.3481747 z"
         id="path3781"
         inkscape:connector-curvature="0" />
    </g>
  </g>
</svg>
